<?xml version="1.0" encoding="UTF-8"?>
<svg width="5px" height="8px" viewBox="0 0 5 8" version="1.1" xmlns="http://www.w3.org/2000/svg" xmlns:xlink="http://www.w3.org/1999/xlink" fill="">
    <g id="Symbols" stroke="none" stroke-width="1">
        <g id="A/Z" transform="translate(-23.000000, -3.000000)">
            <g id="7EB46133-42E3-4C51-9C9E-ED5139933C19" transform="translate(26.035185, 7.000000) rotate(270.000000) translate(-26.035185, -7.000000) translate(22.035185, 4.500000)">
                <path d="M5.38609955,0 L5.38609955,0 C5.17404839,0 5.04681769,0.297601221 5.21645862,0.425144601 L6.78563723,1.82812178 L0.254461396,1.82812178 L0.212051164,1.82812178 C0.0848204654,1.87063624 0,1.99817962 0,2.125723 C0,2.25326638 0.127230698,2.38080976 0.254461396,2.38080976 L6.743227,2.38080976 L5.17404839,3.78378695 C5.04681769,3.86881587 5.04681769,4.03887371 5.13163816,4.16641709 C5.21645862,4.25144601 5.38609955,4.29396047 5.51333025,4.16641709 L7.54902142,2.29578084 C7.67625212,2.21075192 7.67625212,2.04069408 7.54902142,1.9131507 L5.55574048,0.0850289201 C5.51333025,0.0425144601 5.42850979,0 5.38609955,0 Z" id="Shape"></path>
            </g>
        </g>
    </g>
</svg>
