<?xml version="1.0" ?><!DOCTYPE svg  PUBLIC '-//W3C//DTD SVG 1.1//EN'  'http://www.w3.org/Graphics/SVG/1.1/DTD/svg11.dtd'><svg enable-background="new 0 0 80 80" height="80px" id="Layer_1" version="1.1" viewBox="0 0 80 80" width="80px" xml:space="preserve" xmlns="http://www.w3.org/2000/svg" xmlns:xlink="http://www.w3.org/1999/xlink"><g><defs><rect height="100" id="SVGID_1_" width="100"/></defs><path d="M70.709,15.029c1.17,2.657,1.928,7.07,0.797,10.301c4.625,3.949,6.215,13.549,3.982,21.394   C82.08,47.227,89.932,46.482,95,48.505c-4.738-0.609-11.209-1.804-17.32-1.388c-1.157,0.079-2.873-0.044-2.789,1.585   c7.074,0.556,14.104,1.16,19.912,2.973c-5.761-0.94-12.754-2.374-19.912-2.574c-2.957,5.835-8.908,8.704-17.123,9.308   c0.883,1.921,2.574,2.652,2.987,5.744c0.616,4.617-0.964,11.381,0.595,14.459c0.748,1.475,1.967,1.514,2.789,2.774   c-2.012,2.382-7-0.267-7.568-2.774c-0.973-4.295,1.482-10.954-1.192-13.865c0.188,4.684-1.108,11.264,0.199,15.449   c0.515,1.646,2.002,2.281,1.593,3.765c-9.352,0.95-5.443-12.104-6.972-19.81c-1.411,0.101-0.791,2.113-0.796,2.973   c-0.04,7.523,1.54,17.844-6.57,16.837c-0.237-1.581,1.088-2.119,1.593-3.563c1.479-4.233-0.277-10.541,0.401-15.65   c-3.095,2.333,0.325,10.48-1.593,14.656c-1.105,2.404-4.666,3.451-7.367,2.376c0.352-1.788,2.2-1.5,2.984-3.167   c1.096-2.325,0.008-5.674,0.399-9.111c-5.729,1.143-10.173-0.166-12.348-3.764c-0.973-1.615-1.214-3.521-2.39-4.951   c-1.17-1.432-3.04-1.625-3.582-3.564c7.095-1.707,7.367,7.303,13.739,7.525c1.954,0.07,2.97-0.564,4.778-0.989   c0.506-2.272,1.589-3.966,3.186-5.153C34.703,57.52,28.155,55.05,25.11,49.1c-7.208,0.355-13.804,1.317-19.913,2.771   c5.545-2.014,12.384-2.736,19.715-2.973c-0.432-2.596-4.219-1.882-6.57-1.782C13.973,47.31,8.473,47.853,5,48.505   c5.034-1.795,12.098-1.571,18.918-1.585c-2.086-6.54-1.363-16.929,3.186-20.798c-1.289-3.249-0.889-8.563,0.796-11.093   c5.079,0.228,8.159,2.443,11.35,4.557c3.957-1.125,8.118-1.685,13.54-1.387c2.28,0.126,4.651,1.151,6.369,0.989   c1.685-0.158,3.542-2.049,5.178-2.771C66.468,15.476,68.271,15.117,70.709,15.029"/></g></svg>
