<?xml version="1.0" encoding="UTF-8"?>
<svg width="14px" height="14px" viewBox="0 0 14 14" version="1.1" xmlns="http://www.w3.org/2000/svg" xmlns:xlink="http://www.w3.org/1999/xlink">
    <g id="Page-1" stroke="none" stroke-width="1">
        <g id="Top-Big" transform="translate(-1375.000000, -73.000000)" fill-rule="nonzero">
            <g id="if_linkedin_322459" transform="translate(1375.000000, 73.000000)">
                <path d="M14,8.58364826 L14,13.9994913 L10.9993055,13.9994913 L10.9993055,8.94534884 C10.9993055,7.6755814 10.5651479,6.80922965 9.47902486,6.80922965 C8.64911793,6.80922965 8.1561328,7.39324128 7.93881095,7.95843023 C7.86005001,8.16039244 7.83914433,8.44069767 7.83914433,8.72405523 L7.83914433,13.9994913 L4.83747743,13.9994913 C4.83747743,13.9994913 4.87734408,5.43975291 4.83747743,4.55356105 L7.83914433,4.55356105 L7.83914433,5.89302326 C7.83331018,5.90319767 7.82553132,5.91388081 7.819211,5.92354651 L7.83914433,5.92354651 L7.83914433,5.89302326 C8.23781081,5.24949128 8.95006251,4.33226744 10.5442423,4.33226744 C12.5200722,4.33175872 14,5.68241279 14,8.58364826 L14,8.58364826 Z M1.69870815,0 C0.671412696,0 0,0.70559593 0,1.63248547 C0,2.53800872 0.652451729,3.26497093 1.65884151,3.26497093 L1.67877483,3.26497093 C2.72454508,3.26497093 3.37602445,2.53851744 3.37602445,1.63248547 C3.35609112,0.70559593 2.72454508,0 1.6977358,0 L1.69870815,0 Z M0.178427559,14 L3.1791221,14 L3.1791221,4.55406977 L0.178427559,4.55406977 L0.178427559,14 Z" id="Shape"></path>
            </g>
        </g>
    </g>
</svg>
