<?xml version="1.0" encoding="UTF-8"?>
<svg width="17px" height="14px" viewBox="0 0 17 14" version="1.1" xmlns="http://www.w3.org/2000/svg" xmlns:xlink="http://www.w3.org/1999/xlink">
    <g id="Page-1" stroke="none" stroke-width="1">
        <g id="Top-Big" transform="translate(-1289.000000, -73.000000)" fill-rule="nonzero">
            <g id="0DC48C76-4B8A-46EB-BC95-A804684811CC" transform="translate(1289.000000, 73.000000)">
                <path d="M11.6,2.77555756e-16 C13,2.77555756e-16 13.7,0.5 14.4,1.1 C15,1 15.7,0.7 16.2,0.5 C16.3,0.4 16.5,0.3 16.6,0.3 C16.3,1 16,1.5 15.5,2 C15.3,2 15.2,2.1 15,2.2 L15,2.2 C15.7,2.2 16.4,1.8 17,1.7 L17,1.7 C16.7,2.2 16.3,2.7 15.8,3.1 C15.6,3.2 15.4,3.4 15.2,3.5 C15.2,4.3 15.2,5.1 15,5.8 C14.1,9.8 11.8,12.5 8.2,13.6 C6.9,14 4.8,14.2 3.3,13.8 C2.6,13.6 1.9,13.4 1.3,13.1 C1,12.9 0.6,12.8 0.3,12.6 C0.2,12.6 0.1,12.5 0,12.4 C0.3,12.4 0.7,12.5 1.1,12.5 C1.4,12.4 1.8,12.4 2.1,12.4 C2.9,12.2 3.6,12 4.2,11.6 C4.5,11.4 4.9,11.2 5.2,11 C4.8,11 4.5,10.9 4.2,10.8 C3,10.4 2.3,9.7 1.9,8.5 C2.2,8.5 3.2,8.6 3.5,8.4 C3.1,8.4 2.6,8.2 2.3,8 C1.4,7.4 0.7,6.5 0.7,5 C0.8,5 0.9,5.1 1,5.1 C1.2,5.2 1.5,5.3 1.7,5.3 C1.8,5.3 2,5.4 2.2,5.4 C2.2,5.4 2.2,5.4 2.2,5.4 C2,5.2 1.8,5.1 1.6,4.8 C1,4.1 0.5,2.9 0.8,1.6 C0.9,1.2 1,0.9 1.2,0.7 C1.2,0.7 1.2,0.7 1.2,0.7 C1.3,0.8 1.4,0.9 1.5,1 C1.8,1.4 2.2,1.7 2.5,2 C3.8,3 5,3.7 6.8,4.1 C7.3,4.2 7.8,4.3 8.4,4.3 C8.2,3.8 8.3,3.1 8.4,2.6 C8.7,1.5 9.4,0.7 10.4,0.2 C10.6,0.1 10.9,0 11.2,0 C11.3,2.77555756e-16 11.4,2.77555756e-16 11.6,2.77555756e-16 Z" id="Shape"></path>
            </g>
        </g>
    </g>
</svg>
