<svg version="1.2" xmlns="http://www.w3.org/2000/svg" xmlns:xlink="http://www.w3.org/1999/xlink" overflow="visible" preserveAspectRatio="none" viewBox="0 0 166 166" xml:space="preserve" y="0px" x="0px" id="Layer_2_1__1748248734078" width="40" height="40"><g transform="translate(1, 1)"><style type="text/css">
	.st0_1748248734078{fill:#FFFFFF;}
</style><g id="XMLID_1__1748248734078">
	<path d="M123.7,75.7c-1,0-1.9,0.3-2.6,1c-0.3,0.3-0.6,0.7-0.9,1.1l-1.7-0.7c0.1-0.3,0.3-0.8,0.6-1.4   c0.3-0.6,0.7-1.2,1.2-1.7c0.6-0.6,1.2-1.1,1.9-1.5c0.9-0.4,1.9-0.7,2.8-0.6c1.2,0,2.3,0.3,3.4,0.8c0.9,0.5,1.6,1.3,2.1,2.2   c0.6,1.1,0.9,2.4,0.9,3.7c0.1,1.5,0.1,3.1,0.1,4.8l0.1,18.8h-4.2V83.4c0-0.9,0-1.8-0.1-2.8c0-0.8-0.2-1.7-0.4-2.5   c-0.2-0.7-0.6-1.3-1.1-1.8C125.2,75.9,124.5,75.6,123.7,75.7z" class="st0_1748248734078" vector-effect="non-scaling-stroke"/>
	<path d="M119.7,79.1c-0.3,1-0.5,2-0.6,3.1c-0.1,1.1-0.1,2.1-0.1,2.9v17.1h-4.2V72.5h3.8v4.5l1.7,0.7   C120,78.2,119.8,78.6,119.7,79.1z" class="st0_1748248734078" vector-effect="non-scaling-stroke"/>
	<rect height="5.2" width="4.5" class="st0_1748248734078" y="62" x="105.7" vector-effect="non-scaling-stroke"/>
	<rect height="29.7" width="4.2" class="st0_1748248734078" y="72.5" x="105.8" vector-effect="non-scaling-stroke"/>
	<path d="M102.1,74.1c0,1.6-0.2,3.1-0.6,4.6c-0.4,1.4-1,2.7-1.9,3.8c-0.9,1.1-2.1,2-3.4,2.6c-1.6,0.7-3.4,1-5.2,0.9h-4   v16.3h-4.6V62h7.8c1.8,0,3.6,0.2,5.4,0.6c1.5,0.5,2.8,1.4,3.8,2.6c0.3,0.4,0.6,0.8,0.9,1.3c0.3,0.6,0.6,1.2,0.9,1.8   c0.3,0.8,0.5,1.6,0.6,2.4C102,71.9,102.1,73,102.1,74.1z M97.5,74.1c0.1-1.6-0.2-3.2-0.8-4.7c-0.4-1-1.1-1.8-1.9-2.4   c-0.7-0.5-1.5-0.8-2.3-0.9c-0.7-0.1-1.3-0.1-2-0.1H87v16h3.8c0.9,0,1.8-0.1,2.6-0.3c0.8-0.2,1.5-0.6,2.1-1.1   c0.7-0.7,1.2-1.5,1.5-2.4C97.4,76.8,97.6,75.5,97.5,74.1z" class="st0_1748248734078" vector-effect="non-scaling-stroke"/>
	<polygon points="69.6,80.6 78.5,102.3 73.3,102.3 66.9,85.6 60.5,102.3 56,102.3 64.8,81.3 57.1,62 62,62 67.4,76.5    73,62 77.5,62" class="st0_1748248734078" vector-effect="non-scaling-stroke"/>
	<path d="M52.9,62l0,28.1c0,0.7,0,1.5-0.1,2.5c0,0.9-0.2,1.9-0.3,2.8c-0.2,1-0.5,1.9-0.9,2.8c-0.4,0.9-1,1.8-1.8,2.4   c-0.9,0.8-1.8,1.3-2.9,1.7c-1.4,0.5-2.9,0.7-4.4,0.7c-2,0.1-4-0.3-5.8-1.2c-1.3-0.7-2.3-1.7-3-3c-0.6-1.3-1-2.7-1.1-4.1   c-0.1-1.5-0.2-3-0.2-4.5V62H37v28.1c0,1.2,0,2.4,0.1,3.5c0,1,0.2,1.9,0.6,2.9c0.4,0.8,0.9,1.5,1.7,1.9c1,0.5,2.1,0.8,3.2,0.7   c2.2,0,3.8-0.7,4.7-2c0.8-1.3,1.3-3.6,1.3-6.8V62H52.9z" class="st0_1748248734078" vector-effect="non-scaling-stroke"/>
	<path d="M120.3,74c-0.5,0.5-0.8,1.1-1.2,1.7c-0.3,0.6-0.5,1-0.6,1.4v-4.5h-3.8v29.7h4.2V85.1c0-0.9,0-1.9,0.1-2.9   c0.1-1.1,0.3-2.1,0.6-3.1c0.2-0.5,0.3-0.9,0.6-1.3c0.2-0.4,0.5-0.8,0.9-1.1c0.7-0.7,1.6-1,2.6-1c0.8-0.1,1.5,0.2,2.1,0.7   c0.5,0.5,0.9,1.1,1.1,1.8c0.2,0.8,0.4,1.6,0.4,2.5c0.1,0.9,0.1,1.8,0.1,2.8v18.9h4.2l-0.1-18.8c0-1.7,0-3.3-0.1-4.8   c0-1.3-0.3-2.5-0.9-3.7c-0.5-0.9-1.2-1.7-2.1-2.2c-1-0.6-2.2-0.9-3.4-0.8c-1,0-2,0.2-2.8,0.6C121.5,72.9,120.8,73.4,120.3,74z    M164,0v164H0V0H164z M110.2,67.2V62h-4.5v5.2H110.2z M110,102.3V72.5h-4.2v29.7H110z M101.5,78.7c0.4-1.5,0.6-3,0.6-4.6   c0-1.1-0.1-2.2-0.2-3.3c-0.1-0.8-0.3-1.6-0.6-2.4c-0.2-0.6-0.5-1.2-0.9-1.8c-0.3-0.4-0.6-0.9-0.9-1.3c-1-1.2-2.3-2.2-3.8-2.6   C93.8,62.2,92,62,90.2,62h-7.8v40.3H87V85.9h4c1.8,0.1,3.5-0.3,5.2-0.9c1.3-0.6,2.5-1.5,3.4-2.6C100.5,81.3,101.1,80,101.5,78.7z    M78.5,102.3l-8.9-21.7L77.5,62H73l-5.6,14.5L62,62h-4.9l7.7,19.3l-8.8,21h4.5l6.4-16.7l6.4,16.7H78.5z M52.8,90.1l0-28.1h-4.4   v28.3c0,3.2-0.4,5.4-1.3,6.8c-0.9,1.3-2.4,2-4.7,2c-1.1,0.1-2.2-0.2-3.2-0.7c-0.7-0.5-1.3-1.2-1.7-1.9c-0.4-0.9-0.6-1.9-0.6-2.9   C37,92.4,37,91.3,37,90.1V62h-4.6v28.2c0,1.5,0.1,3,0.2,4.5c0.1,1.4,0.5,2.8,1.1,4.1c0.7,1.3,1.7,2.3,3,3c1.8,0.9,3.8,1.3,5.8,1.2   c1.5,0,3-0.2,4.4-0.7c1.1-0.4,2.1-1,2.9-1.7c0.8-0.7,1.4-1.5,1.8-2.4c0.4-0.9,0.7-1.8,0.9-2.8c0.2-0.9,0.3-1.9,0.3-2.8   C52.8,91.6,52.8,90.8,52.8,90.1z" vector-effect="non-scaling-stroke"/>
	<path d="M96.7,69.4c0.6,1.5,0.9,3.1,0.8,4.7c0,1.3-0.1,2.7-0.5,4c-0.3,0.9-0.8,1.8-1.5,2.4c-0.6,0.6-1.3,1-2.1,1.1   c-0.9,0.2-1.7,0.3-2.6,0.3H87V66h3.5c0.7,0,1.3,0,2,0.1c0.8,0.1,1.6,0.4,2.3,0.9C95.6,67.6,96.3,68.5,96.7,69.4z" vector-effect="non-scaling-stroke"/>
</g></g></svg>