<?xml version="1.0" encoding="UTF-8"?>
<svg width="40px" height="40px" viewBox="0 0 40 40" version="1.1" xmlns="http://www.w3.org/2000/svg" xmlns:xlink="http://www.w3.org/1999/xlink">
    <!-- Generator: Sketch 44.1 (41455) - http://www.bohemiancoding.com/sketch -->
    <title>UXPin_logo_black</title>
    <desc>Created with Sketch.</desc>
    <defs></defs>
    <g id="Page-1" stroke="none" stroke-width="1" fill="none" fill-rule="evenodd">
        <g id="UXPin_logo_black" fill-rule="nonzero" fill="#444444">
            <path d="M0,0 L0,39.8780488 L39.8780488,39.8780488 L39.8780488,0 L0,0 Z M39.3658537,39.3658537 L0.512195122,39.3658537 L0.512195122,0.512195122 L39.3902439,0.512195122 L39.3902439,39.3658537 L39.3658537,39.3658537 Z" id="Shape"></path>
            <path d="M8.19512195,23.902439 C8.34146341,24.195122 8.58536585,24.4390244 8.92682927,24.6341463 C9.26829268,24.8292683 9.73170732,24.9268293 10.3414634,24.9268293 C10.7560976,24.9268293 11.1219512,24.8780488 11.4146341,24.7560976 C11.7073171,24.6585366 11.9512195,24.5121951 12.1219512,24.3414634 C12.3170732,24.1707317 12.4634146,23.9756098 12.5609756,23.7560976 C12.6585366,23.5365854 12.7317073,23.2926829 12.7804878,23.0731707 C12.8292683,22.8536585 12.8536585,22.6097561 12.8536585,22.3902439 C12.8536585,22.1707317 12.8780488,21.9756098 12.8780488,21.7804878 L12.8780488,14.9512195 L11.804878,14.9512195 L11.804878,21.8292683 C11.804878,22.6097561 11.7073171,23.1463415 11.4878049,23.4634146 C11.2926829,23.7804878 10.902439,23.9512195 10.3658537,23.9512195 C10.0243902,23.9512195 9.7804878,23.902439 9.58536585,23.7804878 C9.41463415,23.6585366 9.26829268,23.5121951 9.17073171,23.3170732 C9.07317073,23.1219512 9.02439024,22.8780488 9.02439024,22.6097561 C9,22.3414634 9,22.0487805 9,21.7560976 L9,14.9268293 L7.87804878,14.9268293 L7.87804878,21.7560976 C7.87804878,22.1219512 7.90243902,22.4878049 7.92682927,22.8536585 C7.95121951,23.2682927 8.04878049,23.6097561 8.19512195,23.902439 Z" id="Shape"></path>
            <polygon id="Shape" points="14.7073171 24.7560976 16.2682927 20.6829268 17.8292683 24.7560976 19.097561 24.7560976 16.9268293 19.4878049 18.8292683 14.9756098 17.7560976 14.9756098 16.3902439 18.4878049 15.0731707 14.9756098 13.8780488 14.9756098 15.7560976 19.6585366 13.6097561 24.7560976"></polygon>
            <path d="M21.1707317,20.7804878 L22.1219512,20.7804878 C22.6097561,20.7804878 23.0487805,20.7073171 23.3902439,20.5609756 C23.7317073,20.4146341 24,20.195122 24.2195122,19.9268293 C24.4390244,19.6585366 24.5853659,19.3658537 24.6829268,19 C24.7804878,18.6585366 24.8292683,18.2926829 24.8292683,17.902439 C24.8292683,17.6097561 24.804878,17.3414634 24.7804878,17.1219512 C24.7317073,16.902439 24.6829268,16.7073171 24.6341463,16.5365854 C24.5609756,16.3658537 24.4878049,16.2195122 24.4146341,16.097561 C24.3414634,15.9756098 24.2682927,15.8780488 24.195122,15.7804878 C23.9268293,15.4634146 23.6341463,15.2439024 23.2682927,15.1463415 C22.9268293,15.0487805 22.4878049,15 21.9512195,15 L20.0487805,15 L20.0487805,24.7804878 L21.1707317,24.7804878 L21.1707317,20.7804878 Z M21.1707317,15.9268293 L22.0243902,15.9268293 C22.1463415,15.9268293 22.3170732,15.9268293 22.5121951,15.9512195 C22.7073171,15.9756098 22.8780488,16.0487805 23.0731707,16.1707317 C23.2439024,16.2926829 23.4146341,16.4878049 23.5365854,16.7560976 C23.6585366,17.0243902 23.7317073,17.3902439 23.7317073,17.902439 C23.7317073,18.2926829 23.6829268,18.6341463 23.6097561,18.8780488 C23.5365854,19.1219512 23.4146341,19.3170732 23.2682927,19.4634146 C23.1219512,19.6097561 22.9512195,19.6829268 22.7560976,19.7317073 C22.5609756,19.7804878 22.3414634,19.804878 22.1219512,19.804878 L21.195122,19.804878 L21.195122,15.9268293 L21.1707317,15.9268293 Z" id="Shape"></path>
            <rect id="Rectangle-path" x="25.7317073" y="17.5365854" width="1" height="7.2195122"></rect>
            <rect id="Rectangle-path" x="25.6829268" y="14.9756098" width="1.09756098" height="1.24390244"></rect>
            <path d="M28.902439,20.5853659 C28.902439,20.3658537 28.902439,20.1219512 28.9268293,19.8780488 C28.9512195,19.6097561 29,19.3658537 29.0731707,19.1219512 C29.1463415,18.8780488 29.2682927,18.6829268 29.4146341,18.5365854 C29.5609756,18.3658537 29.7804878,18.2926829 30.0487805,18.2926829 C30.2682927,18.2926829 30.4390244,18.3414634 30.5609756,18.4634146 C30.6829268,18.5853659 30.7804878,18.7317073 30.8292683,18.902439 C30.8780488,19.0731707 30.9268293,19.2682927 30.9268293,19.5121951 C30.9268293,19.7317073 30.9512195,19.9512195 30.9512195,20.195122 L30.9512195,24.7804878 L31.9512195,24.7804878 L31.9512195,20.1707317 C31.9512195,19.7560976 31.9512195,19.3658537 31.9268293,19 C31.902439,18.6341463 31.8292683,18.3414634 31.7073171,18.097561 C31.5853659,17.8780488 31.4146341,17.6829268 31.195122,17.5609756 C30.9756098,17.4146341 30.6829268,17.3658537 30.3902439,17.3658537 C30.1219512,17.3658537 29.8780488,17.4146341 29.7073171,17.5121951 C29.5121951,17.6097561 29.3658537,17.7317073 29.2439024,17.8780488 C29.1219512,18.0243902 29.0243902,18.1707317 28.9512195,18.2926829 C28.8780488,18.4390244 28.8292683,18.5365854 28.804878,18.6341463 L28.804878,17.5365854 L27.8780488,17.5365854 L27.8780488,24.7560976 L28.8780488,24.7560976 L28.8780488,20.5853659 L28.902439,20.5853659 Z" id="Shape"></path>
        </g>
    </g>
</svg>