<svg xmlns="http://www.w3.org/2000/svg" xmlns:xlink="http://www.w3.org/1999/xlink" viewBox="0 0 71.73 69.34"><defs><style>.cls-1{fill:none;}.cls-2{clip-path:url(#clip-path);}.cls-3{fill:#ffe699;}.cls-4{fill:#1d1d1b;}</style><clipPath id="clip-path" transform="translate(-14.13 -15.33)"><rect class="cls-1" width="100" height="100"/></clipPath></defs><title>icon-board</title><g id="Warstwa_2" data-name="Warstwa 2"><g id="Warstwa_1-2" data-name="Warstwa 1"><g class="cls-2"><path class="cls-3" d="M81.64,64.33H28.14a1,1,0,0,1-1-1v-41a1,1,0,0,1,1-1h53.5a1,1,0,0,1,1,1v41a1,1,0,0,1-1,1" transform="translate(-14.13 -15.33)"/><path class="cls-4" d="M64.5,84.67a.86.86,0,0,1-.6-.27l-13-13V82.3a.87.87,0,0,1-1.73,0V71.38L36.1,84.3a.84.84,0,0,1-.6.27.85.85,0,0,1-.6-1.47L48.53,69.37l.12-.72a1.3,1.3,0,0,1,.17-.43l.32-.54V61.06H15a.87.87,0,1,1,0-1.73h6.13V16.2a.87.87,0,0,1,.87-.87H78a.87.87,0,0,1,.87.87V59.33H85a1,1,0,0,1,.87,1,.87.87,0,0,1-.87.87H50.87v6.63l.39.58a.67.67,0,0,1,.1.3l.1.77L65.09,83.2a.79.79,0,0,1,0,1.2.84.84,0,0,1-.6.27M22.87,59.33H77.13V17.07H22.87Z" transform="translate(-14.13 -15.33)"/></g></g></g></svg>