<svg xmlns="http://www.w3.org/2000/svg" viewBox="0 0 74.93 44.66"><defs><style>.cls-1{fill:#d5dee4;}.cls-2{fill:#1a1a1a;}.cls-3{fill:#2f302f;}.cls-4{fill:#fff;}.cls-5{fill:#ffdb5f;}.cls-6{fill:#2f3030;}.cls-7{fill:#847400;}</style></defs><title>powerful-prototyping</title><g id="Warstwa_2" data-name="Warstwa 2"><g id="_2" data-name="2"><circle class="cls-1" cx="25.06" cy="9.09" r="2.49"/><circle class="cls-1" cx="25.06" cy="28.34" r="2.49"/><circle class="cls-1" cx="44.14" cy="9.14" r="2.49"/><circle class="cls-1" cx="44.14" cy="28.39" r="2.49"/><path class="cls-2" d="M22.89,23.09a.31.31,0,0,1-.31-.31V21.52a.31.31,0,1,1,.63,0v1.26A.31.31,0,0,1,22.89,23.09Z"/><path class="cls-2" d="M22.89,19.3a.31.31,0,0,1-.31-.31V17.73a.31.31,0,1,1,.63,0V19A.31.31,0,0,1,22.89,19.3Z"/><path class="cls-2" d="M22.89,15.51a.31.31,0,0,1-.31-.31V13.94a.31.31,0,1,1,.63,0V15.2A.31.31,0,0,1,22.89,15.51Z"/><path class="cls-2" d="M36.92,28.13H35.65a.31.31,0,0,1,0-.63h1.26a.31.31,0,0,1,0,.63Z"/><path class="cls-2" d="M33.13,28.13H31.86a.31.31,0,0,1,0-.63h1.26a.31.31,0,0,1,0,.63Z"/><path class="cls-2" d="M29.34,28.13H28.07a.31.31,0,0,1,0-.63h1.26a.31.31,0,0,1,0,.63Z"/><path class="cls-2" d="M42,22.51a.31.31,0,0,1-.31-.31V20.94a.31.31,0,0,1,.63,0V22.2A.31.31,0,0,1,42,22.51Z"/><path class="cls-2" d="M42,18.72a.31.31,0,0,1-.31-.31V17.15a.31.31,0,0,1,.63,0v1.26A.31.31,0,0,1,42,18.72Z"/><path class="cls-2" d="M42,14.94a.31.31,0,0,1-.31-.31V13.36a.31.31,0,0,1,.63,0v1.26A.31.31,0,0,1,42,14.94Z"/><path class="cls-2" d="M36.34,8.67H35.08a.31.31,0,0,1,0-.63h1.26a.31.31,0,0,1,0,.63Z"/><path class="cls-2" d="M32.55,8.67H31.29a.31.31,0,0,1,0-.63h1.26a.31.31,0,0,1,0,.63Z"/><path class="cls-2" d="M28.77,8.67H27.5a.31.31,0,0,1,0-.63h1.26a.31.31,0,0,1,0,.63Z"/><path class="cls-2" d="M22.89,10.92a2.57,2.57,0,1,1,2.57-2.57A2.57,2.57,0,0,1,22.89,10.92Zm0-4.38a1.81,1.81,0,1,0,1.81,1.81A1.81,1.81,0,0,0,22.89,6.55Z"/><path class="cls-2" d="M42,10.92a2.57,2.57,0,1,1,2.57-2.57A2.57,2.57,0,0,1,42,10.92Zm0-4.38a1.81,1.81,0,1,0,1.81,1.81A1.81,1.81,0,0,0,42,6.55Z"/><path class="cls-2" d="M22.89,30.39a2.57,2.57,0,1,1,2.57-2.57A2.57,2.57,0,0,1,22.89,30.39Zm0-4.38a1.81,1.81,0,1,0,1.81,1.81A1.81,1.81,0,0,0,22.89,26Z"/><path class="cls-2" d="M42,30.39a2.57,2.57,0,1,1,2.57-2.57A2.57,2.57,0,0,1,42,30.39ZM42,26a1.81,1.81,0,1,0,1.81,1.81A1.81,1.81,0,0,0,42,26Z"/><path class="cls-3" d="M66.77,35.42a2.85,2.85,0,0,1-2.85,2.85H3.61A2.85,2.85,0,0,1,.76,35.42H0A3.62,3.62,0,0,0,3.61,39H63.92a3.62,3.62,0,0,0,3.61-3.61h-.76Z"/><rect class="cls-3" y="34.83" width="67.53" height="0.76"/><path class="cls-3" d="M62.89,34.45a.38.38,0,0,1-.38.38H5a.38.38,0,0,1-.38-.38V24.83H3.88v9.62A1.15,1.15,0,0,0,5,35.6H62.51a1.15,1.15,0,0,0,1.14-1.14V3.13h-.76Z"/><circle class="cls-4" cx="63.28" cy="33.75" r="9.77"/><circle class="cls-5" cx="65.32" cy="35.05" r="9.61"/><path class="cls-3" d="M62.89,1.14V3.32h.76V1.14A1.15,1.15,0,0,0,62.51,0H5A1.15,1.15,0,0,0,3.88,1.14V25.09h.76V1.14A.38.38,0,0,1,5,.76H62.51A.38.38,0,0,1,62.89,1.14Z"/><g id="_grupa_" data-name="&lt;grupa&gt;"><g id="_grupa_2" data-name="&lt;grupa&gt;"><g id="_grupa_3" data-name="&lt;grupa&gt;"><path id="_ścieżka_złożona_" data-name="&lt;ścieżka złożona&gt;" class="cls-6" d="M63.31,24.19a9.37,9.37,0,1,1-9.37,9.37,9.38,9.38,0,0,1,9.37-9.37m0-.87A10.24,10.24,0,0,0,53.07,33.56h0a10.24,10.24,0,0,0,20.48,0h0A10.24,10.24,0,0,0,63.31,23.32Z"/></g></g></g><polygon id="interaction-proportions" class="cls-7" points="66.82 34.23 64.98 33.42 65.86 28.13 61.04 33.26 62.89 34.07 62.01 39.36 66.82 34.23"/></g></g></svg>